<?xml version="1.0" encoding="iso-8859-1"?>
<!-- Generator: Adobe Illustrator 18.1.1, SVG Export Plug-In . SVG Version: 6.00 Build 0)  -->
<svg version="1.1" id="Capa_1" xmlns="http://www.w3.org/2000/svg" xmlns:xlink="http://www.w3.org/1999/xlink" x="0px" y="0px"
	 viewBox="0 0 90 90" style="enable-background:new 0 0 90 90;" xml:space="preserve">
<g>
	<g>
		<path style="fill:#030104;" d="M88.42,49.504L72.68,12.043C71.432,9.545,68.131,7.5,65.344,7.5H55.1L57,27.822h13.5L45,48.969
			L19.5,27.822H33L34.899,7.5H24.658c-2.789,0-6.09,2.045-7.336,4.543L1.582,49.504c-1.248,2.5-1.893,6.801-1.434,9.557l3.4,18.428
			c0.46,2.755,3.116,5.011,5.903,5.011h71.098c2.789,0,5.443-2.256,5.902-5.012l3.402-18.428
			C90.311,56.305,89.666,52.004,88.42,49.504z M81.605,62.63l-1.295,7.514c-0.387,2.885-2.984,5.243-5.771,5.243H15.463
			c-2.787,0-5.385-2.358-5.773-5.243L8.395,62.63c-0.387-2.885,1.578-5.243,4.365-5.243h64.48
			C80.029,57.387,81.992,59.745,81.605,62.63z"/>
	</g>
</g>
<g>
</g>
<g>
</g>
<g>
</g>
<g>
</g>
<g>
</g>
<g>
</g>
<g>
</g>
<g>
</g>
<g>
</g>
<g>
</g>
<g>
</g>
<g>
</g>
<g>
</g>
<g>
</g>
<g>
</g>
</svg>
